HIERARCHY
ROOT Hips
{
	OFFSET 0.000000 0.000000 0.000000
	CHANNELS 6 Xposition Yposition Zposition Xrotation Yrotation Zrotation
	JOINT LeftUpLeg_virtual
	{
		OFFSET 0.000000 0.000000 0.000000
		CHANNELS 3 Xrotation Yrotation Zrotation
		JOINT LeftUpLeg
		{
			OFFSET 15.427100 -6.655098 0.678600
			CHANNELS 3 Xrotation Yrotation Zrotation
			JOINT LeftLeg
			{
				OFFSET 4.081073 -39.591068 13.024000
				CHANNELS 3 Xrotation Yrotation Zrotation
				JOINT LeftFoot
				{
					OFFSET -4.081074 -37.707932 -15.979700
					CHANNELS 3 Xrotation Yrotation Zrotation
					JOINT LeftToeBase
					{
						OFFSET 5.346399 -15.068900 20.645000
						CHANNELS 3 Xrotation Yrotation Zrotation
						JOINT LeftToe_End
						{
							OFFSET 2.754700 0.931300 11.300900
							CHANNELS 3 Xrotation Yrotation Zrotation
							End Site
							{
								OFFSET 0 0 0
							}
						}
					}
				}
			}
		}
	}
	JOINT RightUpLeg_virtual
	{
		OFFSET 0.000000 0.000000 0.000000
		CHANNELS 3 Xrotation Yrotation Zrotation
		JOINT RightUpLeg
		{
			OFFSET -15.569500 -6.655098 0.678600
			CHANNELS 3 Xrotation Yrotation Zrotation
			JOINT RightLeg
			{
				OFFSET -4.081825 -39.591045 13.023800
				CHANNELS 3 Xrotation Yrotation Zrotation
				JOINT RightFoot
				{
					OFFSET 4.081824 -37.707954 -15.979600
					CHANNELS 3 Xrotation Yrotation Zrotation
					JOINT RightToeBase
					{
						OFFSET -5.346400 -15.068900 20.645000
						CHANNELS 3 Xrotation Yrotation Zrotation
						JOINT RightToe_End
						{
							OFFSET -2.754700 0.931300 11.300900
							CHANNELS 3 Xrotation Yrotation Zrotation
							End Site
							{
								OFFSET 0 0 0
							}
						}
					}
				}
			}
		}
	}
	JOINT Spine_virtual
	{
		OFFSET 0.000000 0.000000 0.000000
		CHANNELS 3 Xrotation Yrotation Zrotation
		JOINT Spine
		{
			OFFSET -0.279200 12.230698 -2.892100
			CHANNELS 3 Xrotation Yrotation Zrotation
			JOINT Spine1
			{
				OFFSET -0.232667 10.192268 -1.242267
				CHANNELS 3 Xrotation Yrotation Zrotation
				JOINT Spine1_split
				{
					OFFSET -0.232667 10.192268 -1.242267
					CHANNELS 3 Xrotation Yrotation Zrotation
					JOINT Spine2
					{
						OFFSET -0.232667 10.192268 -1.242267
						CHANNELS 3 Xrotation Yrotation Zrotation
						JOINT Neck_virtual
						{
							OFFSET 0.000000 0.000000 0.000000
							CHANNELS 3 Xrotation Yrotation Zrotation
							JOINT Neck
							{
								OFFSET -0.418800 17.814194 8.416900
								CHANNELS 3 Xrotation Yrotation Zrotation
								JOINT Head
								{
									OFFSET 0.000000 7.031097 3.806800
									CHANNELS 3 Xrotation Yrotation Zrotation
									JOINT HeadTop_End
									{
										OFFSET 0.000000 24.646606 12.978600
										CHANNELS 3 Xrotation Yrotation Zrotation
										End Site
										{
											OFFSET 0 0 0
										}
									}
								}
							}
						}
						JOINT LeftShoulder_virtual
						{
							OFFSET 0.000000 0.000000 0.000000
							CHANNELS 3 Xrotation Yrotation Zrotation
							JOINT LeftShoulder
							{
								OFFSET 8.476499 7.247704 -3.868750
								CHANNELS 3 Xrotation Yrotation Zrotation
								JOINT LeftShoulder_split
								{
									OFFSET 8.476499 7.247704 -3.868750
									CHANNELS 3 Xrotation Yrotation Zrotation
									JOINT LeftArm
									{
										OFFSET 9.308998 -2.777710 0.208600
										CHANNELS 3 Xrotation Yrotation Zrotation
										JOINT LeftForeArm
										{
											OFFSET 29.972298 0.000000 0.000000
											CHANNELS 3 Xrotation Yrotation Zrotation
											JOINT LeftHand
											{
												OFFSET 26.026505 0.000000 0.000000
												CHANNELS 3 Xrotation Yrotation Zrotation
												End Site
												{
													OFFSET 0 0 0
												}
											}
										}
									}
								}
							}
						}
						JOINT RightShoulder_virtual
						{
							OFFSET 0.000000 0.000000 0.000000
							CHANNELS 3 Xrotation Yrotation Zrotation
							JOINT RightShoulder
							{
								OFFSET -7.570500 7.247704 -3.868750
								CHANNELS 3 Xrotation Yrotation Zrotation
								JOINT RightShoulder_split
								{
									OFFSET -7.570500 7.247704 -3.868750
									CHANNELS 3 Xrotation Yrotation Zrotation
									JOINT RightArm
									{
										OFFSET -9.308998 -2.777710 0.208500
										CHANNELS 3 Xrotation Yrotation Zrotation
										JOINT RightForeArm
										{
											OFFSET -29.972300 0.000000 0.000000
											CHANNELS 3 Xrotation Yrotation Zrotation
											JOINT RightHand
											{
												OFFSET -26.026505 0.000000 0.000000
												CHANNELS 3 Xrotation Yrotation Zrotation
												End Site
												{
													OFFSET 0 0 0
												}
											}
										}
									}
								}
							}
						}
					}
				}
			}
		}
	}
}
MOTION
Frames: 6
Frame Time: 0.03333333
-36.228020 89.393097 -34.212715 0.000000 0.000000 0.000000 4.701269 -3.715947 0.560014 -38.786284 2.914258 9.685750 35.489554 8.435678 0.060090 12.625620 10.929696 -3.504737 -4.532400 -0.008627 0.364911 0.000000 0.000000 0.000000 5.566828 -3.603984 0.463920 0.257078 -13.198313 -8.596288 21.891024 -5.876120 1.533136 -12.781470 -6.018784 17.242194 -14.498967 0.892576 1.103694 0.000000 0.000000 0.000000 4.858079 -2.650812 -0.768953 2.312265 1.834114 -4.219350 2.117117 2.265811 -0.795451 0.849355 0.164355 0.101261 0.000000 0.000000 0.000000 2.311871 2.305077 -1.179295 1.183562 0.664017 1.015378 -1.415975 11.481773 3.226934 0.000000 0.000000 0.000000 1.512282 2.292404 -1.558497 0.546845 -2.770339 -12.265818 -1.446920 0.175289 1.797294 -11.387013 22.984796 -35.757557 -0.716548 -62.996563 0.090599 0.000000 0.000000 0.000000 1.872664 2.683387 -0.581155 1.067112 -3.034782 10.055201 2.177045 2.024190 -3.016981 -15.247777 -16.510440 46.856064 0.267628 15.585781 -0.069198 0.000000 0.000000 0.000000 
-35.580902 90.459465 -34.427208 0.000000 0.000000 0.000000 4.972103 -3.943428 1.041994 -35.103935 0.990432 13.344535 39.429938 8.667167 -0.168048 10.759747 14.041891 -0.993133 -1.598586 0.541852 -3.470607 0.000000 0.000000 0.000000 6.181040 -3.504981 0.852573 -0.977123 -14.356207 -11.739738 21.523514 -5.065492 2.365204 -10.943648 -3.530940 16.762906 -16.116772 0.911027 0.966985 0.000000 0.000000 0.000000 5.142513 -2.105599 -0.312146 2.200050 2.520533 -4.789304 1.588606 3.181200 -1.234204 0.640810 -0.104516 0.295969 0.000000 0.000000 0.000000 1.803064 3.150427 -1.482881 0.610539 0.342124 1.736875 -1.919109 9.377720 3.586942 0.000000 0.000000 0.000000 1.062235 3.204326 -2.022485 0.836408 -2.800095 -12.776088 -1.786064 -0.170357 2.024559 2.511848 29.099956 -42.957184 -0.195011 -65.092625 0.347759 0.000000 0.000000 0.000000 1.487098 3.577475 -1.026082 1.054009 -2.846073 9.350232 2.839070 1.747546 -2.830326 -17.570865 -16.517390 44.704780 0.295024 16.998756 -0.399859 0.000000 0.000000 0.000000 
-34.722019 91.200165 -34.474091 0.000000 0.000000 0.000000 5.616220 -4.063770 0.826203 -30.772010 -0.558266 18.234054 40.199567 9.835624 -0.450200 9.688968 17.754744 1.857536 2.599732 0.910642 -7.714964 0.000000 0.000000 0.000000 6.901052 -3.135324 0.684339 -0.600638 -14.396628 -13.972958 19.687569 -4.391663 3.052713 -10.695052 -1.807009 15.728756 -16.013495 0.836906 1.130130 0.000000 0.000000 0.000000 5.801118 -1.684526 -0.323335 1.842742 3.064685 -5.002299 0.972606 3.941325 -1.509810 0.630869 -0.114613 0.340839 0.000000 0.000000 0.000000 1.103315 3.848025 -1.661182 -0.028273 0.027779 2.318617 -1.908935 7.041394 3.994030 0.000000 0.000000 0.000000 0.517381 3.948394 -2.262109 1.071449 -2.692013 -12.331041 -2.254470 -0.823449 1.998489 14.768744 32.907196 -50.296212 0.384251 -64.191142 0.712223 0.000000 0.000000 0.000000 1.032105 4.314823 -1.319831 1.102215 -2.825227 8.767568 3.068997 1.591378 -2.396977 -19.298057 -17.117907 42.737901 0.180600 18.077545 -0.575713 0.000000 0.000000 0.000000 
-33.622101 91.489349 -34.360695 0.000000 0.000000 0.000000 6.545743 -3.403627 -0.075424 -26.268511 -1.311132 23.856118 38.098461 11.176707 -0.478997 9.038265 20.505512 3.495059 5.025893 1.065771 -10.942631 0.000000 0.000000 0.000000 7.480398 -1.919532 -0.114054 1.282605 -13.435431 -14.916684 16.581901 -3.898397 3.410896 -11.105833 -0.908674 15.536893 -15.548736 0.719203 1.288521 0.000000 0.000000 0.000000 6.690888 -0.742889 -0.801672 1.324111 3.439281 -4.810757 0.351574 4.447454 -1.637253 1.043232 0.038019 0.568811 0.000000 0.000000 0.000000 0.352037 4.303238 -1.729933 -0.631736 -0.308946 2.649240 -1.442221 4.606596 4.420303 0.000000 0.000000 0.000000 -0.049150 4.412273 -2.279402 1.243193 -2.540837 -11.132642 -2.901669 -1.227980 1.445745 23.026513 35.242936 -55.955983 0.750532 -60.664060 0.980723 0.000000 0.000000 0.000000 0.567052 4.793457 -1.457280 1.189494 -2.881132 8.317445 2.836780 1.554600 -1.577712 -20.459799 -18.107559 40.691600 -0.010849 19.019521 -0.565523 0.000000 0.000000 0.000000 
-32.125729 91.154655 -34.271271 0.000000 0.000000 0.000000 7.413347 -1.215791 -1.293101 -22.800520 -0.832209 29.386605 34.644174 11.671077 -0.285442 8.803963 20.686879 2.634404 4.131079 1.252879 -12.109460 0.000000 0.000000 0.000000 7.964549 0.575780 -1.325348 3.808928 -11.945937 -14.884254 12.702580 -3.510823 3.280184 -11.573765 -0.873314 17.297691 -15.725105 0.597610 1.104745 0.000000 0.000000 0.000000 7.619135 0.899550 -1.558433 0.823443 3.626938 -4.251495 -0.207387 4.653039 -1.680527 1.403569 0.480165 0.601773 0.000000 0.000000 0.000000 -0.366095 4.469952 -1.737927 -1.070662 -0.708314 2.717032 -0.710082 2.367851 4.778019 0.000000 0.000000 0.000000 -0.574267 4.565538 -2.142862 1.337358 -2.357666 -9.431953 -3.610169 -1.368436 0.527896 26.860974 37.173076 -59.132875 0.790023 -54.736743 1.030907 0.000000 0.000000 0.000000 0.169763 4.961659 -1.487584 1.291077 -3.028422 8.013993 2.431338 1.385000 -0.612064 -20.939504 -19.157132 38.529360 -0.175476 20.025611 -0.419797 0.000000 0.000000 0.000000 
-30.194548 90.278038 -34.121368 0.000000 0.000000 0.000000 8.229629 2.341647 -2.407364 -20.984605 0.498266 33.883899 31.201469 10.767572 -0.071569 9.190561 17.673458 -1.290318 -0.077701 1.447682 -10.619324 0.000000 0.000000 0.000000 8.279884 4.193445 -2.459098 6.389406 -10.401109 -14.486025 9.266057 -3.177906 2.727221 -12.238070 -1.707855 20.582440 -16.026255 0.523238 0.478346 0.000000 0.000000 0.000000 8.340300 3.469039 -2.225415 0.417992 3.623256 -3.514132 -0.640832 4.563158 -1.697891 1.594581 1.046869 0.452188 0.000000 0.000000 0.000000 -0.985327 4.359992 -1.741532 -1.330981 -1.157649 2.600870 0.091987 0.511382 5.002451 0.000000 0.000000 0.000000 -0.987507 4.444845 -1.952139 1.369867 -2.259851 -7.672179 -4.398772 -1.149826 -0.771520 27.037864 39.138811 -59.891996 0.495843 -47.094212 0.868747 0.000000 0.000000 0.000000 -0.145053 4.824852 -1.492401 1.361586 -3.272100 7.806803 2.012908 1.239414 0.416853 -20.812993 -19.999554 36.295287 -0.141849 21.213085 -0.314212 0.000000 0.000000 0.000000 
